<svg xmlns="http://www.w3.org/2000/svg" viewBox="0 0 48.55 48.55"><defs><style>.cls-1{fill:#575a27;}.cls-2{fill:#ebeef1;}</style></defs><title>BottomBar_CameraTrigger</title><g id="Layer_1" data-name="Layer 1"><circle class="cls-1" cx="24.27" cy="24.27" r="24.27"/><path class="cls-2" d="M21.12,22.45l5.79-10a12.71,12.71,0,0,0-2.64-.29,12.12,12.12,0,0,0-7.67,2.73l4.45,7.7Zm14.73-1.82a12.15,12.15,0,0,0-7.28-7.69l-4.44,7.69Zm.32,1.22H27.08l.35.6,5.78,10a12.15,12.15,0,0,0,3-10.62Zm-16.1,2.42-4.73-8.19a12.15,12.15,0,0,0-3,10.62h9.09ZM12.7,27.92A12.15,12.15,0,0,0,20,35.61l4.44-7.69Zm13.67,0-4.73,8.2a12.61,12.61,0,0,0,2.63.29,12.08,12.08,0,0,0,7.67-2.73L27.5,26Z"/></g></svg>