<svg xmlns="http://www.w3.org/2000/svg" viewBox="0 0 24 24"><defs><style>.cls-1{fill:#be4c27;}.cls-2{fill:#ebeef1;}</style></defs><title>LikeIcon_OrangeBorder</title><g id="Layer_3" data-name="Layer 3"><path class="cls-1" d="M18.49,24h-13A5.51,5.51,0,0,1,0,18.49v-13A5.51,5.51,0,0,1,5.51,0h13A5.51,5.51,0,0,1,24,5.51v13A5.51,5.51,0,0,1,18.49,24Z"/><path class="cls-2" d="M14.76,6l.54,0c1.17.12,2.53,1.25,2.7,3.41v.73c-.15,2.07-1.64,4.62-6,7.83-4.36-3.21-5.85-5.76-6-7.83V9.44C6.17,7.28,7.52,6.15,8.7,6l.54,0A3.22,3.22,0,0,1,12,7.55,3.22,3.22,0,0,1,14.76,6"/></g></svg>