<svg id="Layer_1" data-name="Layer 1" xmlns="http://www.w3.org/2000/svg" viewBox="0 0 149.96 223.09"><title>ZooVentureLogo</title><rect width="149.93" height="223.5" fill="#575a27"/><path d="M50,161.2l-.32.32a22.18,22.18,0,0,0-4,4.83,18.11,18.11,0,0,0-2.18,5.55l-.22.38a25.41,25.41,0,0,0-4.13,5.53,19.46,19.46,0,0,0-2.06,6l-.26.48L35,186.08c1,.3,1.81.53,2.51.69a9.4,9.4,0,0,0,2.07.24,8.84,8.84,0,0,0,2.12-.26c.73-.17,1.63-.44,2.68-.8l.39-.13.35.19.39.34a4.94,4.94,0,0,1,.77,1,9.27,9.27,0,0,1,.81,1.64,8.22,8.22,0,0,1,.45,2.42v.45a7.4,7.4,0,0,1-.32,2.27,8,8,0,0,1-.73,1.65,6,6,0,0,1-.74,1l-.37.37-.32.26-.42-.07a23.65,23.65,0,0,0-2.55-.64,11.1,11.1,0,0,0-2-.2,8.26,8.26,0,0,0-2,.25,24.68,24.68,0,0,0-2.4.72h-.49c-.92-.19-1.71-.34-2.36-.43a12.09,12.09,0,0,0-1.79-.15,7.48,7.48,0,0,0-1.07.08,9.23,9.23,0,0,0-1.06.23,11.68,11.68,0,0,0-1.21.38c-.44.16-.93.35-1.46.57h-.58a5.68,5.68,0,0,0-.68-.41,4.81,4.81,0,0,1-1.32-1.17l-.39-.21-.42-.28a8.84,8.84,0,0,1-2.21-1.61,7.57,7.57,0,0,1-1.19-1.62,5,5,0,0,1-.5-1.44,7.71,7.71,0,0,1-.09-1V190l.06-.32.19-.2a20.43,20.43,0,0,0,4.26-4.83A22.08,22.08,0,0,0,26,178.44l.2-.42a23,23,0,0,0,3.91-5.32,20.87,20.87,0,0,0,2.08-6l.29-.45c.43-.37.84-.74,1.22-1.12a14.54,14.54,0,0,0,1.13-1.21c-.81-.17-1.53-.3-2.16-.38a11.71,11.71,0,0,0-1.67-.13,7.48,7.48,0,0,0-1.07.08,9.23,9.23,0,0,0-1.06.23,11.68,11.68,0,0,0-1.21.38c-.44.16-.93.35-1.46.57l-.33.12-.25-.12a5.55,5.55,0,0,1-.57-.29,4.89,4.89,0,0,1-1.16-1,7,7,0,0,1-1.14-1.94,7.93,7.93,0,0,1-.52-3.12,7.14,7.14,0,0,1,.45-2.73,6.67,6.67,0,0,1,1-1.72,3.89,3.89,0,0,1,1-.92l.54-.3.25-.13.36.13a13.61,13.61,0,0,0,2.09.61,8.84,8.84,0,0,0,1.65.16l.82,0q.63,0,1.38-.09a13.24,13.24,0,0,0,1.47-.25,2,2,0,0,0,1-.48h.52c1,.32,1.88.57,2.61.73a9.79,9.79,0,0,0,2.09.24,10.35,10.35,0,0,0,2.16-.24,24.4,24.4,0,0,0,2.71-.79l.39-.13.35.19.31.27a5.79,5.79,0,0,1,.64.76,8.19,8.19,0,0,1,.74,1.28,7.73,7.73,0,0,1,.6,1.78,6.45,6.45,0,0,1,1.29,1.41,10.78,10.78,0,0,1,.77,1.32,5.58,5.58,0,0,1,.39,1,1.64,1.64,0,0,0,.13.43Z" fill="#d9be6c"/><path d="M89.05,193l-.13.32a7,7,0,0,1-.31.64,4.58,4.58,0,0,1-1.13,1.34,8.19,8.19,0,0,1-2.25,1.32,9.59,9.59,0,0,1-3.66.6,7.87,7.87,0,0,1-2.45-.34,6.52,6.52,0,0,1-1.71-.86,26,26,0,0,0-2.91.63,18.45,18.45,0,0,0-2.82,1.05l-.2.13-.19-.07q-.81,0-1.53-.06t-1.5-.06a27.76,27.76,0,0,0-5.36.54A19,19,0,0,0,58,199.87l-.32.13-.26-.07-.48-.19a5.67,5.67,0,0,1-1.36-.82,7.83,7.83,0,0,1-1.5-1.64,5.6,5.6,0,0,1-.88-2.7,6.68,6.68,0,0,1-1.44-1,9.44,9.44,0,0,1-.9-1,4.1,4.1,0,0,1-.47-.82c-.08-.23-.13-.35-.13-.37l-.06-.32.13-.29c.41-.73.76-1.42,1.06-2.07a14.9,14.9,0,0,0,.74-1.88,12.09,12.09,0,0,0,.44-1.87,13.52,13.52,0,0,0,.14-2.08,25.46,25.46,0,0,0-.19-3l.06-.41a24.74,24.74,0,0,0,1.25-3.77,16,16,0,0,0,.4-3.49,18,18,0,0,0-.13-2c-.09-.7-.19-1.42-.32-2.18l-.07-.32.13-.19c.5-1,.9-1.86,1.23-2.66a16.08,16.08,0,0,0,.74-2.43,5.69,5.69,0,0,1-.82-1.73A8.68,8.68,0,0,1,54.6,158a8.92,8.92,0,0,1,.53-3.37,7.1,7.1,0,0,1,1.19-2.05,4,4,0,0,1,1.21-1,4.48,4.48,0,0,1,.61-.26l.32-.12.29.12a14.07,14.07,0,0,0,3.39,1.21,16.8,16.8,0,0,0,3.61.37h1.8a6.05,6.05,0,0,0,1.87-.31l.29-.06.26.13a22.74,22.74,0,0,0,3.22,1.22,12.78,12.78,0,0,0,3,.48,15,15,0,0,1,1.8-.64,8.38,8.38,0,0,1,2.29-.29,7.64,7.64,0,0,1,2.29.31,8.46,8.46,0,0,1,1.69.69,6,6,0,0,1,1.06.71,3.78,3.78,0,0,0,.44.35l.32.32-.13.39a25.45,25.45,0,0,0-.53,2.69,17.63,17.63,0,0,0-.18,2.47,14.46,14.46,0,0,0,.34,3.11,21.27,21.27,0,0,0,1,3.11l.13.19-.06.26c-.13.81-.24,1.59-.32,2.33a18.44,18.44,0,0,0-.13,2.21,18,18,0,0,0,.43,4,19,19,0,0,0,1.34,3.85l.13.2-.13.32c-.24,1-.42,1.82-.55,2.63a14.53,14.53,0,0,0-.19,2.33,13.35,13.35,0,0,0,.42,3.34,20.28,20.28,0,0,0,1.32,3.53ZM66.13,168.87l-.06.19a25,25,0,0,0-1.35,4,15.39,15.39,0,0,0-.42,3.53,15.83,15.83,0,0,0,.13,2.06,20.49,20.49,0,0,0,.38,2.16l.07.26-.13.29a31.44,31.44,0,0,0-1.44,3.3,11,11,0,0,0-.59,3l1.67-.22c.61-.09,1.19-.19,1.76-.31a12.17,12.17,0,0,0,1.61-.44A4.85,4.85,0,0,0,69,186l.26-.13.26.07a16.07,16.07,0,0,0,2.21.35c.72.07,1.42.1,2.11.1a22.42,22.42,0,0,0,2.83-.19c-.1-.63-.24-1.28-.4-2s-.36-1.39-.59-2.15l-.07-.38A23.78,23.78,0,0,0,76,177.5a18.12,18.12,0,0,0-.44-4,23.37,23.37,0,0,0-1.27-3.91l-.13-.26.07-.32c.23-.84.43-1.66.58-2.45a19.48,19.48,0,0,0,.29-2.39l-.89-.09a8.32,8.32,0,0,0-.85,0,13.65,13.65,0,0,0-1.81.13c-.6.09-1.25.22-1.93.39l-.49-.07a16.13,16.13,0,0,1-1.7-.37l-1.58-.4a6.13,6.13,0,0,0-.07.94v.9c0,.47,0,.95.08,1.45s.14,1,.24,1.58Z" fill="#d9be6c"/><path d="M129.49,193l-.13.32s-.1.23-.3.64a4.74,4.74,0,0,1-1.13,1.34,8.26,8.26,0,0,1-2.26,1.32,9.5,9.5,0,0,1-3.65.6,7.82,7.82,0,0,1-2.45-.34,6.22,6.22,0,0,1-1.71-.86,26.15,26.15,0,0,0-2.92.63,18.85,18.85,0,0,0-2.82,1.05l-.19.13-.2-.07q-.8,0-1.53-.06c-.48,0-1-.06-1.49-.06a27.94,27.94,0,0,0-5.37.54,19,19,0,0,0-5,1.68l-.32.13-.26-.07-.48-.19a5.46,5.46,0,0,1-1.35-.82,7.32,7.32,0,0,1-1.5-1.64,5.61,5.61,0,0,1-.89-2.7,6.36,6.36,0,0,1-1.43-1,8.65,8.65,0,0,1-.91-1,4,4,0,0,1-.46-.82,2.72,2.72,0,0,1-.13-.37l-.07-.32.13-.29c.41-.73.77-1.42,1.07-2.07a16.59,16.59,0,0,0,.74-1.88,12.06,12.06,0,0,0,.43-1.87,13.47,13.47,0,0,0,.15-2.08,25.64,25.64,0,0,0-.2-3l.07-.41a24.62,24.62,0,0,0,1.24-3.77,15.38,15.38,0,0,0,.4-3.49,16,16,0,0,0-.13-2c-.08-.7-.19-1.42-.32-2.18l-.06-.32.13-.19c.49-1,.9-1.86,1.22-2.66a15,15,0,0,0,.74-2.43,5.94,5.94,0,0,1-.82-1.73A8.68,8.68,0,0,1,95,158a9.12,9.12,0,0,1,.53-3.37,7.34,7.34,0,0,1,1.2-2.05,4.15,4.15,0,0,1,1.2-1,3.83,3.83,0,0,1,.62-.26l.32-.12.29.12a14,14,0,0,0,3.38,1.21,16.8,16.8,0,0,0,3.61.37H108a6.1,6.1,0,0,0,1.87-.31l.29-.06.25.13a22.83,22.83,0,0,0,3.23,1.22,12.61,12.61,0,0,0,3,.48,15.15,15.15,0,0,1,1.81-.64,8.25,8.25,0,0,1,2.28-.29,7.6,7.6,0,0,1,2.29.31,8.22,8.22,0,0,1,1.69.69,6.15,6.15,0,0,1,1.07.71,4.19,4.19,0,0,0,.43.35l.32.32-.12.39a25.6,25.6,0,0,0-.54,2.69,19.23,19.23,0,0,0-.17,2.47,13.85,13.85,0,0,0,.34,3.11,20.12,20.12,0,0,0,1,3.11l.13.19L127,168c-.13.81-.23,1.59-.32,2.33a18.44,18.44,0,0,0-.13,2.21,18,18,0,0,0,.44,4,18.92,18.92,0,0,0,1.33,3.85l.13.2-.13.32c-.23,1-.42,1.82-.54,2.63a14.57,14.57,0,0,0-.2,2.33,13.35,13.35,0,0,0,.42,3.34,20.28,20.28,0,0,0,1.32,3.53Zm-22.91-24.14-.07.19a25,25,0,0,0-1.35,4,15.39,15.39,0,0,0-.42,3.53,15.83,15.83,0,0,0,.13,2.06,20.61,20.61,0,0,0,.39,2.16l.06.26-.13.29a29.2,29.2,0,0,0-1.43,3.3,11.46,11.46,0,0,0-.6,3l1.68-.22c.6-.09,1.19-.19,1.75-.31a12.77,12.77,0,0,0,1.62-.44,5,5,0,0,0,1.27-.61l.26-.13.25.07a16.31,16.31,0,0,0,2.21.35c.72.07,1.43.1,2.11.1a22.58,22.58,0,0,0,2.84-.19c-.11-.63-.24-1.28-.4-2s-.36-1.39-.6-2.15l-.06-.38a24.72,24.72,0,0,0,.38-4.23,18.12,18.12,0,0,0-.43-4,23.44,23.44,0,0,0-1.28-3.91l-.12-.26.06-.32c.24-.84.43-1.66.58-2.45a17.71,17.71,0,0,0,.29-2.39l-.89-.09a8.19,8.19,0,0,0-.85,0,13.9,13.9,0,0,0-1.81.13c-.6.09-1.24.22-1.93.39l-.48-.07a16.34,16.34,0,0,1-1.71-.37l-1.58-.4a7.66,7.66,0,0,0-.06.94v.9a12.07,12.07,0,0,0,.08,1.45c0,.49.13,1,.24,1.58Z" fill="#d9be6c"/><path d="M50,161.2l-.32.32a22.18,22.18,0,0,0-4,4.83,18.11,18.11,0,0,0-2.18,5.55l-.22.38a25.41,25.41,0,0,0-4.13,5.53,19.46,19.46,0,0,0-2.06,6l-.26.48L35,186.08c1,.3,1.81.53,2.51.69a9.4,9.4,0,0,0,2.07.24,8.84,8.84,0,0,0,2.12-.26c.73-.17,1.63-.44,2.68-.8l.39-.13.35.19.39.34a4.94,4.94,0,0,1,.77,1,9.27,9.27,0,0,1,.81,1.64,8.22,8.22,0,0,1,.45,2.42v.45a7.4,7.4,0,0,1-.32,2.27,8,8,0,0,1-.73,1.65,6,6,0,0,1-.74,1l-.37.37-.32.26-.42-.07a23.65,23.65,0,0,0-2.55-.64,11.1,11.1,0,0,0-2-.2,8.26,8.26,0,0,0-2,.25,24.68,24.68,0,0,0-2.4.72h-.49c-.92-.19-1.71-.34-2.36-.43a12.09,12.09,0,0,0-1.79-.15,7.48,7.48,0,0,0-1.07.08,9.23,9.23,0,0,0-1.06.23,11.68,11.68,0,0,0-1.21.38c-.44.16-.93.35-1.46.57h-.58a5.68,5.68,0,0,0-.68-.41,4.81,4.81,0,0,1-1.32-1.17l-.39-.21-.42-.28a8.84,8.84,0,0,1-2.21-1.61,7.57,7.57,0,0,1-1.19-1.62,5,5,0,0,1-.5-1.44,7.71,7.71,0,0,1-.09-1V190l.06-.32.19-.2a20.43,20.43,0,0,0,4.26-4.83A22.08,22.08,0,0,0,26,178.44l.2-.42a23,23,0,0,0,3.91-5.32,20.87,20.87,0,0,0,2.08-6l.29-.45c.43-.37.84-.74,1.22-1.12a14.54,14.54,0,0,0,1.13-1.21c-.81-.17-1.53-.3-2.16-.38a11.71,11.71,0,0,0-1.67-.13,7.48,7.48,0,0,0-1.07.08,9.23,9.23,0,0,0-1.06.23,11.68,11.68,0,0,0-1.21.38c-.44.16-.93.35-1.46.57l-.33.12-.25-.12a5.55,5.55,0,0,1-.57-.29,4.89,4.89,0,0,1-1.16-1,7,7,0,0,1-1.14-1.94,7.93,7.93,0,0,1-.52-3.12,7.14,7.14,0,0,1,.45-2.73,6.67,6.67,0,0,1,1-1.72,3.89,3.89,0,0,1,1-.92l.54-.3.25-.13.36.13a13.61,13.61,0,0,0,2.09.61,8.84,8.84,0,0,0,1.65.16l.82,0q.63,0,1.38-.09a13.24,13.24,0,0,0,1.47-.25,2,2,0,0,0,1-.48h.52c1,.32,1.88.57,2.61.73a9.79,9.79,0,0,0,2.09.24,10.35,10.35,0,0,0,2.16-.24,24.4,24.4,0,0,0,2.71-.79l.39-.13.35.19.31.27a5.79,5.79,0,0,1,.64.76,8.19,8.19,0,0,1,.74,1.28,7.73,7.73,0,0,1,.6,1.78,6.45,6.45,0,0,1,1.29,1.41,10.78,10.78,0,0,1,.77,1.32,5.58,5.58,0,0,1,.39,1,1.64,1.64,0,0,0,.13.43Z" fill="none" stroke="#231f20" stroke-width="0.5"/><path d="M89.05,193l-.13.32a7,7,0,0,1-.31.64,4.58,4.58,0,0,1-1.13,1.34,8.19,8.19,0,0,1-2.25,1.32,9.59,9.59,0,0,1-3.66.6,7.87,7.87,0,0,1-2.45-.34,6.52,6.52,0,0,1-1.71-.86,26,26,0,0,0-2.91.63,18.45,18.45,0,0,0-2.82,1.05l-.2.13-.19-.07q-.81,0-1.53-.06t-1.5-.06a27.76,27.76,0,0,0-5.36.54A19,19,0,0,0,58,199.87l-.32.13-.26-.07-.48-.19a5.67,5.67,0,0,1-1.36-.82,7.83,7.83,0,0,1-1.5-1.64,5.6,5.6,0,0,1-.88-2.7,6.68,6.68,0,0,1-1.44-1,9.44,9.44,0,0,1-.9-1,4.1,4.1,0,0,1-.47-.82c-.08-.23-.13-.35-.13-.37l-.06-.32.13-.29c.41-.73.76-1.42,1.06-2.07a14.9,14.9,0,0,0,.74-1.88,12.09,12.09,0,0,0,.44-1.87,13.52,13.52,0,0,0,.14-2.08,25.46,25.46,0,0,0-.19-3l.06-.41a24.74,24.74,0,0,0,1.25-3.77,16,16,0,0,0,.4-3.49,18,18,0,0,0-.13-2c-.09-.7-.19-1.42-.32-2.18l-.07-.32.13-.19c.5-1,.9-1.86,1.23-2.66a16.08,16.08,0,0,0,.74-2.43,5.69,5.69,0,0,1-.82-1.73A8.68,8.68,0,0,1,54.6,158a8.92,8.92,0,0,1,.53-3.37,7.1,7.1,0,0,1,1.19-2.05,4,4,0,0,1,1.21-1,4.48,4.48,0,0,1,.61-.26l.32-.12.29.12a14.07,14.07,0,0,0,3.39,1.21,16.8,16.8,0,0,0,3.61.37h1.8a6.05,6.05,0,0,0,1.87-.31l.29-.06.26.13a22.74,22.74,0,0,0,3.22,1.22,12.78,12.78,0,0,0,3,.48,15,15,0,0,1,1.8-.64,8.38,8.38,0,0,1,2.29-.29,7.64,7.64,0,0,1,2.29.31,8.46,8.46,0,0,1,1.69.69,6,6,0,0,1,1.06.71,3.78,3.78,0,0,0,.44.35l.32.32-.13.39a25.45,25.45,0,0,0-.53,2.69,17.63,17.63,0,0,0-.18,2.47,14.46,14.46,0,0,0,.34,3.11,21.27,21.27,0,0,0,1,3.11l.13.19-.06.26c-.13.81-.24,1.59-.32,2.33a18.44,18.44,0,0,0-.13,2.21,18,18,0,0,0,.43,4,19,19,0,0,0,1.34,3.85l.13.2-.13.32c-.24,1-.42,1.82-.55,2.63a14.53,14.53,0,0,0-.19,2.33,13.35,13.35,0,0,0,.42,3.34,20.28,20.28,0,0,0,1.32,3.53ZM66.13,168.87l-.06.19a25,25,0,0,0-1.35,4,15.39,15.39,0,0,0-.42,3.53,15.83,15.83,0,0,0,.13,2.06,20.49,20.49,0,0,0,.38,2.16l.07.26-.13.29a31.44,31.44,0,0,0-1.44,3.3,11,11,0,0,0-.59,3l1.67-.22c.61-.09,1.19-.19,1.76-.31a12.17,12.17,0,0,0,1.61-.44A4.85,4.85,0,0,0,69,186l.26-.13.26.07a16.07,16.07,0,0,0,2.21.35c.72.07,1.42.1,2.11.1a22.42,22.42,0,0,0,2.83-.19c-.1-.63-.24-1.28-.4-2s-.36-1.39-.59-2.15l-.07-.38A23.78,23.78,0,0,0,76,177.5a18.12,18.12,0,0,0-.44-4,23.37,23.37,0,0,0-1.27-3.91l-.13-.26.07-.32c.23-.84.43-1.66.58-2.45a19.48,19.48,0,0,0,.29-2.39l-.89-.09a8.32,8.32,0,0,0-.85,0,13.65,13.65,0,0,0-1.81.13c-.6.09-1.25.22-1.93.39l-.49-.07a16.13,16.13,0,0,1-1.7-.37l-1.58-.4a6.13,6.13,0,0,0-.07.94v.9c0,.47,0,.95.08,1.45s.14,1,.24,1.58Z" fill="none" stroke="#231f20" stroke-width="0.5"/><path d="M129.49,193l-.13.32s-.1.23-.3.64a4.74,4.74,0,0,1-1.13,1.34,8.26,8.26,0,0,1-2.26,1.32,9.5,9.5,0,0,1-3.65.6,7.82,7.82,0,0,1-2.45-.34,6.22,6.22,0,0,1-1.71-.86,26.15,26.15,0,0,0-2.92.63,18.85,18.85,0,0,0-2.82,1.05l-.19.13-.2-.07q-.8,0-1.53-.06c-.48,0-1-.06-1.49-.06a27.94,27.94,0,0,0-5.37.54,19,19,0,0,0-5,1.68l-.32.13-.26-.07-.48-.19a5.46,5.46,0,0,1-1.35-.82,7.32,7.32,0,0,1-1.5-1.64,5.61,5.61,0,0,1-.89-2.7,6.36,6.36,0,0,1-1.43-1,8.65,8.65,0,0,1-.91-1,4,4,0,0,1-.46-.82,2.72,2.72,0,0,1-.13-.37l-.07-.32.13-.29c.41-.73.77-1.42,1.07-2.07a16.59,16.59,0,0,0,.74-1.88,12.06,12.06,0,0,0,.43-1.87,13.47,13.47,0,0,0,.15-2.08,25.64,25.64,0,0,0-.2-3l.07-.41a24.62,24.62,0,0,0,1.24-3.77,15.38,15.38,0,0,0,.4-3.49,16,16,0,0,0-.13-2c-.08-.7-.19-1.42-.32-2.18l-.06-.32.13-.19c.49-1,.9-1.86,1.22-2.66a15,15,0,0,0,.74-2.43,5.94,5.94,0,0,1-.82-1.73A8.68,8.68,0,0,1,95,158a9.12,9.12,0,0,1,.53-3.37,7.34,7.34,0,0,1,1.2-2.05,4.15,4.15,0,0,1,1.2-1,3.83,3.83,0,0,1,.62-.26l.32-.12.29.12a14,14,0,0,0,3.38,1.21,16.8,16.8,0,0,0,3.61.37H108a6.1,6.1,0,0,0,1.87-.31l.29-.06.25.13a22.83,22.83,0,0,0,3.23,1.22,12.61,12.61,0,0,0,3,.48,15.15,15.15,0,0,1,1.81-.64,8.25,8.25,0,0,1,2.28-.29,7.6,7.6,0,0,1,2.29.31,8.22,8.22,0,0,1,1.69.69,6.15,6.15,0,0,1,1.07.71,4.19,4.19,0,0,0,.43.35l.32.32-.12.39a25.6,25.6,0,0,0-.54,2.69,19.23,19.23,0,0,0-.17,2.47,13.85,13.85,0,0,0,.34,3.11,20.12,20.12,0,0,0,1,3.11l.13.19L127,168c-.13.81-.23,1.59-.32,2.33a18.44,18.44,0,0,0-.13,2.21,18,18,0,0,0,.44,4,18.92,18.92,0,0,0,1.33,3.85l.13.2-.13.32c-.23,1-.42,1.82-.54,2.63a14.57,14.57,0,0,0-.2,2.33,13.35,13.35,0,0,0,.42,3.34,20.28,20.28,0,0,0,1.32,3.53Zm-22.91-24.14-.07.19a25,25,0,0,0-1.35,4,15.39,15.39,0,0,0-.42,3.53,15.83,15.83,0,0,0,.13,2.06,20.61,20.61,0,0,0,.39,2.16l.06.26-.13.29a29.2,29.2,0,0,0-1.43,3.3,11.46,11.46,0,0,0-.6,3l1.68-.22c.6-.09,1.19-.19,1.75-.31a12.77,12.77,0,0,0,1.62-.44,5,5,0,0,0,1.27-.61l.26-.13.25.07a16.31,16.31,0,0,0,2.21.35c.72.07,1.43.1,2.11.1a22.58,22.58,0,0,0,2.84-.19c-.11-.63-.24-1.28-.4-2s-.36-1.39-.6-2.15l-.06-.38a24.72,24.72,0,0,0,.38-4.23,18.12,18.12,0,0,0-.43-4,23.44,23.44,0,0,0-1.28-3.91l-.12-.26.06-.32c.24-.84.43-1.66.58-2.45a17.71,17.71,0,0,0,.29-2.39l-.89-.09a8.19,8.19,0,0,0-.85,0,13.9,13.9,0,0,0-1.81.13c-.6.09-1.24.22-1.93.39l-.48-.07a16.34,16.34,0,0,1-1.71-.37l-1.58-.4a7.66,7.66,0,0,0-.06.94v.9a12.07,12.07,0,0,0,.08,1.45c0,.49.13,1,.24,1.58Z" fill="none" stroke="#231f20" stroke-width="0.5"/><path d="M35.94,58.84c-.68,4.15-1.2,8.34-2.07,12.45-1.9,9-1.76,10.12,3.44,18.6l-2.13,1,.76,3.33-8.75-6.56c.47,5,1.1,8.89,4.54,11.72,1.54,1.27,2.87,3,4.62,3.77,4.52,2,4.47,5,2.44,9.09-2.52-2.12-6.74-1.67-7.16-6.7-.16-1.83-3.35-3.22-4.55-5.19a18.71,18.71,0,0,1-2.61-7c-.57-4.29-.54-8.67-.73-13a17.45,17.45,0,0,1,0-3c.51-3.81,1.09-7.61,1.65-11.41.33-2.25,1.07-3.93,3.39-2.87A59.3,59.3,0,0,1,29,70.69c-.27,3-1.1,5.91-1.57,8.88-.34,2.19-.47,4.41-.76,7.33,3.73-2.71,4.21-4.13,4.62-9.56.34-4.6.86-9.19,1.53-13.75a27.41,27.41,0,0,1,1.73-5.05Z"/><path d="M70.81,35.22c-1.47-3.73-2.28-3.87-5.38-1.7-2.55,1.8-5.3,3.32-8.18,5.1-.26-1-.43-1.4-.35-1.46,4.45-3.53,8.84-7.16,14.79-8,1.63-.24,3.16-1.16,4.8-1.46s3.71-.86,5.13-.24c4,1.73,7.72,4,11.57,6.06.65.35,1.64.39,2,.9a38.42,38.42,0,0,1,2.31,4.18,18.2,18.2,0,0,1-4.36,0C90.38,38,87.7,37,85,36.08c-.82-.26-1.88-.4-2.35-1-3.24-4-6.65-2.72-10.17-.54A10.7,10.7,0,0,1,70.81,35.22Z"/><path d="M82.77,114c-.89,1.36-1.52,3-2.72,4-3.1,2.48-6.4,4.72-9.71,6.92-2.1,1.4-2.12,2.39.16,5.12L63,131l-.11-.45a4.23,4.23,0,0,0,1.26-.48c1.09-.9,2.11-1.89,3.15-2.85a34.51,34.51,0,0,1-2.81-2.73c-3.18-3.85-8.35-5.92-10.27-10.64a75.85,75.85,0,0,1,8.32,2.92,10.37,10.37,0,0,0,9.29.08c2.08-.88,4.69-.52,7.62-.76l2.24-2.8Z"/><path d="M35.28,114.83A36,36,0,0,1,16.17,104a19.22,19.22,0,0,1-5.52-16.52C12,79.1,13.56,70.76,19.38,64c3.2-3.74,6.08-7.76,9.1-11.66l.84.58a71.77,71.77,0,0,1-4.74,6.85A50,50,0,0,0,12.74,83.59c-1.45,7.75.37,14.74,6.39,20.09a113.44,113.44,0,0,0,10.5,7.77C31.42,112.7,33.39,113.71,35.28,114.83Z"/><path d="M115.43,97.52c3-11.47,3.49-22.08-2.2-32.51L117,60c.62,1.14,1.27,1.81,1.35,2.54,1,9.51,2.1,19,2.83,28.55C121.38,94,119.47,96.13,115.43,97.52Z"/><path d="M114,33.22c1.74-1,2.93-1.46,3.74-2.28a11.72,11.72,0,0,0,1.56-2.86C119.88,27,120.43,25,121,25a30.33,30.33,0,0,1,6,1.08,23,23,0,0,1-.84,3.34,41,41,0,0,1-2,3.7l4.27,1.34c-1.19,1-2.23,1.55-2.7,2.39a10.7,10.7,0,0,0-1,3.6c-.16,1.25.24,2.65-.17,3.78a2.9,2.9,0,0,1-2.36,1.42c-.63,0-1.36-1.22-1.7-2a32.86,32.86,0,0,1-1.17-3.76c.3-2.21,1.28-4.69.58-5.33C118.85,33.5,116.61,33.69,114,33.22Z"/><path d="M76.47,40.09,73.9,43.66c-3-3.78-6-1.17-9-.25a14.89,14.89,0,0,1-3.57,1c-.78,0-1.57-.81-2.35-1.26.44-.66.78-1.76,1.34-1.9C63.84,40.41,67.51,40,71,39c2.5-.71,4.79-2.15,7.41-3.37.69,2.81,2.73,3.73,6.29,4.21,4.11.55,7.93,3.33,11.87,5.15l-.52,1.35-8.63-2.09c-2.58-.61-5.21-1-7.73-1.85C78.59,42.05,77.69,41,76.47,40.09Z"/><path d="M124.48,90.21c3.3-3.89,2-7.44.57-11.58-1.61-4.7-1.59-10-2.28-15,5.9.26,7.76,2.6,7.08,8.1-.31,2.45,0,5-.26,7.44A99.5,99.5,0,0,1,128,89.62c-.14.66-1.64,1-2.51,1.53Z"/><path d="M111,71.3c-5.71-1.88-7.52-1.2-10.27,3.07a9.28,9.28,0,0,1-4.55,3.46c-5.38,1.81-5.43,1.66-7.64,6.36-3.74-2.74-3.62-4.51,1-11.57,1.37,2.85,3.41,4.86,6.51,3.23,1.42-.74,3-2.6,3.09-4,.06-1.19-2-2.5-3-3.62a11.65,11.65,0,0,1,2.7,0c6.6,1.27,6.68,1.25,8.71-5.64Z"/><path d="M82,50.69,84,53.81c-2.71,1.12-4.83,1.89-6.27-1.46a10.14,10.14,0,0,0-2.19-2.72l-10,3.4,1.55-3.63-15,5.31c2.1-4.3,16.14-8.18,19.6-4.85l2.83-3.16a58.14,58.14,0,0,1,7.4,1.73c2.2.83,5.22.93,5.87,4.88l-5.51-3.12Z"/><path d="M51.67,128.54l4.28.91c-1.22,1.07-2,1.62-2.57,2.28-2.19,2.34-1.48,6.9,1.55,7.74s6.49.84,9.76,1.11c1.56.13,3.15-.11,4.71,0,5.21.55,10.3.41,14.43-3.33,3.1-2.8,2.84-5.17-1.08-7.86l5.84-.8c-2.28,11.73-7.76,13.09-16.13,13.82a64.3,64.3,0,0,1-14.48-.1c-5.94-.85-7.45-3.54-6.71-9.43C51.44,131.59,51.52,130.24,51.67,128.54Z"/><path d="M42,33.78l-7.36,7-.82-.72,1-3.44c-2.25-4.47-5.57-8.21-5.51-13.23l1-.82a53,53,0,0,1,5.36,4.13C37.84,28.88,39.79,31.34,42,33.78Z"/><path d="M139.8,82.61A18.29,18.29,0,0,1,142,86.53c1.58,5.77-1.63,14.39-6.87,17.23-4,2.15-8.41,3.39-12.61,5.11a27.15,27.15,0,0,0-4.54,2.28c-3,1.94-5.82,4-8.72,6.08l-.53-.74,16.32-14.24.66.51L123.26,107a9.29,9.29,0,0,0,2.62,0c8.76-3.07,16.36-9,14.56-20-.25-1.47-.39-3-.58-4.45Z"/><path d="M54.4,22.36c3,2.75,6.3,2.42,9.84,1.69,7.06-1.47,14.19-3,21.4-1,3.92,1.11,7.75,2.56,11.73,3.89-2.46,2.34-6.39,1.92-9.92-.88-3.3-2.61-5.65-2.7-7.71-1-2.28-.45-4-1.23-5.58-1-3.43.47-6.78,1.59-10.2,2.2C59.54,27.1,57.06,26.07,54.4,22.36Z"/><path d="M55,71.12c2.63,4.23,2.59,7-.47,10.4-.2-3.88-2.77-4.76-5.73-5.66a7.3,7.3,0,0,1-3.7-3.46c-2.45-4.59-3.37-5.05-8.59-2.09l4.18-9c.66,6.08,1.3,6.57,7,5.7-1.19,3.39-1.09,6.56,2.83,7.67C53,75.42,54.61,73.84,55,71.12Z"/><path d="M21,18.24c1.19-7.34,6.14-11.37,12.51-9.91a22.89,22.89,0,0,1,13.9,8.86l-2.58-1.53c-2.2-1.35-4.27-3-6.63-4-8-3.32-9.6-2.81-15,3.85C22.58,16.32,21.9,17.15,21,18.24Z"/><path d="M136.13,18.56c-7.19-13-19.31-9.61-27.91.32A19.21,19.21,0,0,1,127.63,8.7C132,9.23,135.6,13.41,136.13,18.56Z"/><path d="M89.56,52.11c.4,5.07.71,8.94,1,12.81L89.35,65,88.14,52.89c3.84-1,6.84.3,8.26,4,1.06,2.7-.08,5.14-2.24,7.29.13-2.38.84-4.62.19-6.34C93.64,55.91,91.67,54.51,89.56,52.11Z"/><path d="M103.86,50.81c4.39,0,5.69,2.69,6.37,5.69.14.59-1.08,2.12-1.64,2.1-1.29,0-3.34-.43-3.68-1.25C104.13,55.4,104.18,53.13,103.86,50.81Z"/><path d="M98.88,97.12c6.89,4,10.45-1.25,14.69-5.53.54,2.57.48,4-1.95,4.75-4.28,1.26-5.37,3-5.15,7.42Z"/><path d="M97.08,112.79c-2.46,5.78-7.88,7.22-12.77,9.44l-.67-1Z"/><path d="M33.42,53.82c.56-5.08,4.58-6.89,8.15-9.74.35,1,.83,1.85.67,2C39.35,48.71,36.37,51.26,33.42,53.82Z"/><path d="M100.63,83.36l-4.15-1.22c2.46-2.21,4.92-4.53,7.51-6.67a2.94,2.94,0,0,1,2.55-.57c.73.38,1,1.57,1.23,1.9l-9.35,4.35L101,82.59Z"/><path d="M41.06,98.51,40,93.87l6.94-1.2C47.2,96.3,44.12,96.88,41.06,98.51Z"/><path d="M98.35,102.24c4-.69,5.54,2,3.8,8.37-.19-2-.23-3-.41-4s-.54-2.12-.91-3.51l-3,1.74c-1.42-2.15-2.85-4.32-4.29-6.48l1.27-1Z"/><path d="M79.61,126.21l15.92-6.07C91.26,124.65,85.67,125.68,79.61,126.21Z"/><path d="M139.86,82.53c-.88-3.34-1.77-6.68-2.64-10s-1.66-6.43-2.65-10.25c3.18,4.41,5.7,14.68,5.24,20.34Z"/><path d="M45.87,50.41a48.41,48.41,0,0,1-2.23,5.34c-.41.74-1.5,1.1-2.28,1.63-.37-1-1.36-2.49-1-2.91a50.55,50.55,0,0,1,5-4.84Z"/><path d="M37.22,76.22l4.53,11.15C38.54,86.84,35.71,81.44,37.22,76.22Z"/><path d="M104.92,62.35l-8.6,2.29C98.7,59.87,100.54,59.23,104.92,62.35Z"/><path d="M39.79,70.63c3.37,2.84,6.22,5,8.75,7.54.58.57.09,2.23.09,3.33a30.51,30.51,0,0,0-3.13-3.74c-1.81-1.51-3.87-2.7-5.65-4.24C39.45,73.18,39.79,72,39.79,70.63Z"/><path d="M22.65,31.55c2.07,1.29,4.83,2.15,6,4,1,1.59.21,4.33-.35,6.69C29.84,36.68,25.06,34.83,22.65,31.55Z"/><path d="M108.33,86.38c-.12-1.41-.25-2.82-.39-4.39l3.29-1.43C112.54,84.23,112,85.3,108.33,86.38Z"/><path d="M83.73,66.91l-2.38-10C85.39,60.25,86.13,63.71,83.73,66.91Z"/><path d="M54.84,124.53c-5.3-1.15-9.63-1.93-11.59-7.18Z"/><path d="M42.32,60.07,45.66,57l3.16,4.79-.58.75Z"/><path d="M98.94,111.26l-5.67.68-.54-1c.74-.65,1.45-1.81,2.22-1.86a17.67,17.67,0,0,1,4.34.79Z"/><path d="M84.42,127.91l11.45-4.25C92.64,126.94,88.56,127.78,84.42,127.91Z"/><path d="M130.24,43.16l-2.14-4.28,4.67-2.13C132,38.72,131.22,40.68,130.24,43.16Z"/><path d="M28.83,195.8l-.1.22q-.39.67-.66,1.26a10.34,10.34,0,0,0-.44,1.15,6.58,6.58,0,0,0-.23,1.14,9.28,9.28,0,0,0-.07,1.21v.37a2.56,2.56,0,0,0,0,.39l-.07.26c-.24.47-.44.91-.62,1.33a10.08,10.08,0,0,0-.43,1.23,8,8,0,0,0-.24,1.18,9.65,9.65,0,0,0-.07,1.22c0,.19,0,.38,0,.58s0,.4,0,.61l-.06.28a11.6,11.6,0,0,0-1.2,2.74,10.69,10.69,0,0,0-.41,3,5.82,5.82,0,0,0,0,.59c0,.19,0,.38.05.58v.13l-.11.14a1.81,1.81,0,0,1-.16.21,2,2,0,0,1-.44.36,3.75,3.75,0,0,1-.75.36,3.25,3.25,0,0,1-1.09.16h-.49a7,7,0,0,1-1.29.64,4.58,4.58,0,0,1-1.69.3,3.15,3.15,0,0,1-1.08-.16,3.62,3.62,0,0,1-.76-.35,1.7,1.7,0,0,1-.44-.36l-.16-.19-.12-.13,0-.17c0-.23,0-.45.05-.67s0-.44,0-.67a11,11,0,0,0-.35-2.72,12.44,12.44,0,0,0-1.09-2.73l-.07-.22a12.22,12.22,0,0,0-1.82-6.58l-.07-.27c0-.23,0-.45.05-.67s0-.44,0-.67a9.87,9.87,0,0,0-1.51-5.24l-.1-.17.1-.23a2.19,2.19,0,0,0,.19-.3,3,3,0,0,1,.64-.73,4.41,4.41,0,0,1,1.21-.74,4.46,4.46,0,0,1,1.87-.35,4.35,4.35,0,0,1,.93.1,4.52,4.52,0,0,1,.7.21,4.8,4.8,0,0,1,.45.22l.2.12.19.16v.24a2.49,2.49,0,0,0,0,.47v.47a11.34,11.34,0,0,0,.34,2.79,9.14,9.14,0,0,0,1.1,2.51l0,.23a14.56,14.56,0,0,0,.3,3.08,11.35,11.35,0,0,0,.95,2.67,12.09,12.09,0,0,0,.85-2.3,9.18,9.18,0,0,0,.28-2.33v-.53a3.56,3.56,0,0,0,0-.55l.07-.27a11,11,0,0,0,.71-1.24,9.11,9.11,0,0,0,.46-1.17,7,7,0,0,0,.26-1.19,10.8,10.8,0,0,0,.07-1.31c0-.16,0-.32,0-.48s0-.33,0-.51v-.21l.14-.13.17-.12a2.39,2.39,0,0,1,.43-.22,4.53,4.53,0,0,1,.66-.23,4.08,4.08,0,0,1,.91-.1,4,4,0,0,1,1.69.33,5,5,0,0,1,1.14.73,3,3,0,0,1,.63.73l.21.35Z" fill="#ebeef2"/><path d="M42.66,204.65a4,4,0,0,1-.21,1.35,4.78,4.78,0,0,1-.46,1,3.81,3.81,0,0,1-.47.6l-.23.22-.17.14-.24-.07a14.17,14.17,0,0,0-1.68-.48,7.21,7.21,0,0,0-1.45-.15,5.16,5.16,0,0,0-1,.1l.1.21.07.15-.07.14a11.5,11.5,0,0,0-.56,2.3l.61-.12.65-.08.51,0,.23,0,.13,0,.14.08a15.35,15.35,0,0,0,1.66.6,4.67,4.67,0,0,0,1.38.21,5.67,5.67,0,0,0,1-.11,12.53,12.53,0,0,0,1.29-.29l.2-.06.17.13a1.24,1.24,0,0,0,.2.22,2.37,2.37,0,0,1,.38.54,4.59,4.59,0,0,1,.38.93,4.65,4.65,0,0,1,.17,1.32,3.76,3.76,0,0,1-.24,1.33,4.92,4.92,0,0,1-.48,1,3.18,3.18,0,0,1-.48.59l-.23.22-.23.11-.2-.07a15.57,15.57,0,0,0-1.68-.54,5.32,5.32,0,0,0-1.3-.16,6,6,0,0,0-.92.07c-.32.06-.69.13-1.11.23h-.24c-.32,0-.63-.12-1-.19l-.95-.22a3.46,3.46,0,0,1-.43.41,2.86,2.86,0,0,1-.65.38,4.05,4.05,0,0,1-.89.28,5,5,0,0,1-1.14.11,4.4,4.4,0,0,1-1.66-.27,3.68,3.68,0,0,1-1.05-.61,2.32,2.32,0,0,1-.53-.61,1.34,1.34,0,0,1-.16-.32l-.07-.13.07-.19a9.51,9.51,0,0,0,.58-1.93,10.48,10.48,0,0,0,.19-2,11.85,11.85,0,0,0-.08-1.45,10.75,10.75,0,0,0-.26-1.52v-.23a16.42,16.42,0,0,0,.33-1.64,10.07,10.07,0,0,0,.13-1.64,10.4,10.4,0,0,0-.15-1.77,14.5,14.5,0,0,0-.41-1.73l0-.17.07-.14a9.64,9.64,0,0,0,.74-3.71,10.56,10.56,0,0,0-.11-1.49,12.16,12.16,0,0,0-.35-1.51l-.07-.23.13-.17.21-.21a3.09,3.09,0,0,1,.57-.43,4.54,4.54,0,0,1,2.35-.59,4.26,4.26,0,0,1,1.57.26,4.43,4.43,0,0,1,1,.55c.33,0,.67-.09,1-.16a7.32,7.32,0,0,0,1.09-.29l.14-.07.19,0a14.11,14.11,0,0,0,1.42.38,5.35,5.35,0,0,0,1.16.13,5.45,5.45,0,0,0,1.24-.15c.44-.11.94-.26,1.53-.47l.2-.08.19.12.22.19a2.23,2.23,0,0,1,.45.52,4.88,4.88,0,0,1,.45.89,4.27,4.27,0,0,1,.26,1.3v.31a3.72,3.72,0,0,1-.17,1.21,4.27,4.27,0,0,1-.38.9,2.92,2.92,0,0,1-.4.56l-.19.2-.17.14-.26-.07c-.55-.12-1-.22-1.4-.28a7.23,7.23,0,0,0-1.08-.1,5.63,5.63,0,0,0-1.15.13q-.57.13-1.38.39l-.24,0c-.47-.09-.93-.16-1.37-.2a11.73,11.73,0,0,0-1.33-.07c0,.32.09.63.15.95a7,7,0,0,0,.25,1v.23a5.1,5.1,0,0,0-.17.61c0,.2-.07.41-.11.62a5.05,5.05,0,0,0,.94.19,6.66,6.66,0,0,0,.91,0,7,7,0,0,0,1.28-.11,10.43,10.43,0,0,0,1.42-.35l.2-.07.18.14.21.2a3.06,3.06,0,0,1,.43.54,4.53,4.53,0,0,1,.41.93A4.21,4.21,0,0,1,42.66,204.65Z" fill="#ebeef2"/><path d="M65.93,193.79l-.07.2a18.23,18.23,0,0,0-.48,1.86,9.36,9.36,0,0,0-.18,1.82,7.68,7.68,0,0,0,.11,1.35,10.51,10.51,0,0,0,.32,1.38v.24a12.36,12.36,0,0,0-.53,3.54,10.8,10.8,0,0,0,.13,1.72,9.89,9.89,0,0,0,.43,1.66v.29a9.67,9.67,0,0,0-.51,1.8,11,11,0,0,0-.16,1.81,10.09,10.09,0,0,0,.6,3.41l.07.19-.07.14-.19.3a2.28,2.28,0,0,1-.56.57,4,4,0,0,1-1.06.56,5,5,0,0,1-1.66.24,5.19,5.19,0,0,1-1.4-.16,3.23,3.23,0,0,1-1-.43h-.17a3.43,3.43,0,0,1-.83-.1,4,4,0,0,1-.59-.2,1.49,1.49,0,0,1-.37-.23,1.13,1.13,0,0,1-.15-.14l-.13-.1v-.17a10.44,10.44,0,0,0-.72-3.34,12.84,12.84,0,0,0-1.85-3.14l-.06-.17a13,13,0,0,0-.58-2.19,13.48,13.48,0,0,0-.89-2,11.14,11.14,0,0,0,.16,1.55,8,8,0,0,0,.4,1.49l.07.15-.07.14a9.5,9.5,0,0,0-.48,1.75,10.63,10.63,0,0,0-.15,1.79,11.36,11.36,0,0,0,.13,1.75,8.56,8.56,0,0,0,.47,1.73l.06.19-.06.14s-.08.12-.19.3a2.34,2.34,0,0,1-.57.57,3.85,3.85,0,0,1-1.06.56,5.13,5.13,0,0,1-1.69.24,4.38,4.38,0,0,1-1.66-.26,3.93,3.93,0,0,1-1.05-.6,2.32,2.32,0,0,1-.53-.61,1.46,1.46,0,0,1-.16-.3l-.07-.17.07-.16a9.33,9.33,0,0,0,.58-1.93,10.56,10.56,0,0,0,.19-2.05,13.9,13.9,0,0,0-.08-1.44,11.79,11.79,0,0,0-.26-1.5v-.2c.14-.57.25-1.13.33-1.69a10,10,0,0,0,.13-1.61,10.58,10.58,0,0,0-.15-1.8c-.11-.58-.24-1.16-.41-1.74l0-.14.07-.13a10.26,10.26,0,0,0,.74-3.75,8.93,8.93,0,0,0-.12-1.47,9.53,9.53,0,0,0-.35-1.5l-.06-.22.13-.17.21-.22a2.47,2.47,0,0,1,.57-.42,4.22,4.22,0,0,1,1-.41,4.62,4.62,0,0,1,1.38-.18,4.3,4.3,0,0,1,1.32.18,5,5,0,0,1,1,.41h.28a3.22,3.22,0,0,1,1.14.17,3.4,3.4,0,0,1,.46.19l.22.11,0,.2a10.32,10.32,0,0,0,2.44,5.91l.1.11v.1a12.41,12.41,0,0,0,1.77,4.84v0a11.69,11.69,0,0,0-.14-1.79,15,15,0,0,0-.39-1.78v-.27a10.43,10.43,0,0,0,.73-3.81,10,10,0,0,0-.43-2.91l-.07-.22.14-.17.21-.22a2.47,2.47,0,0,1,.57-.42,4.32,4.32,0,0,1,1-.41,4.74,4.74,0,0,1,1.39-.18,4.25,4.25,0,0,1,1.4.21,5,5,0,0,1,1,.47,2.81,2.81,0,0,1,.61.48,3,3,0,0,0,.23.24Z" fill="#ebeef2"/><path d="M78.31,208.23l-.07.15a9.79,9.79,0,0,0-.64,3.32,7.93,7.93,0,0,0,.15,1.53,11.86,11.86,0,0,0,.44,1.64l.08.19-.08.14s-.08.12-.19.3a2.34,2.34,0,0,1-.57.57,3.85,3.85,0,0,1-1.06.56,5,5,0,0,1-1.67.24,4.47,4.47,0,0,1-1.67-.26,3.63,3.63,0,0,1-1-.6,2.32,2.32,0,0,1-.53-.61l-.17-.3-.07-.17.07-.16a10.44,10.44,0,0,0,.58-1.83,9,9,0,0,0,.19-1.81,12,12,0,0,0-.08-1.31,12.25,12.25,0,0,0-.26-1.44v-.22a12.65,12.65,0,0,0,.34-1.64,11.26,11.26,0,0,0,.1-1.51,10,10,0,0,0-.53-3.14l-.07-.15.07-.14a9.14,9.14,0,0,0,.54-1.86,14.53,14.53,0,0,0,.2-1.85H72.2a10,10,0,0,0-3.46.63l-.14,0-.17-.07a1.19,1.19,0,0,1-.31-.16,2.45,2.45,0,0,1-.61-.53,3.41,3.41,0,0,1-.59-1,4.24,4.24,0,0,1-.27-1.63,3.88,3.88,0,0,1,.26-1.52,3.6,3.6,0,0,1,.57-.94,2.18,2.18,0,0,1,.58-.49l.3-.16.14-.07.17.07a7.5,7.5,0,0,0,1.5.38,11.23,11.23,0,0,0,1.56.11c.47,0,1,0,1.54-.06a5.69,5.69,0,0,0,1.57-.33l.13-.07.14.07a13.46,13.46,0,0,0,1.65.43,9,9,0,0,0,1.55.13,9.88,9.88,0,0,0,3-.53l.2-.07.17.14.23.19a2.46,2.46,0,0,1,.43.52,3.89,3.89,0,0,1,.43.89A4,4,0,0,1,83,195.1a4.17,4.17,0,0,1-.19,1.34,4.61,4.61,0,0,1-.41,1A2.79,2.79,0,0,1,82,198a.86.86,0,0,0-.22.25l-.17.14-.24-.07a12.28,12.28,0,0,0-1.6-.39,10.08,10.08,0,0,0-1.44-.11h-.5a2.33,2.33,0,0,0,0,.45c0,.15,0,.29,0,.42a10.62,10.62,0,0,0,.09,1.4,10.77,10.77,0,0,0,.29,1.37v.21c-.17.64-.3,1.22-.39,1.76a10.61,10.61,0,0,0-.13,1.57,8.73,8.73,0,0,0,.14,1.54,9.51,9.51,0,0,0,.43,1.57Z" fill="#ebeef2"/><path d="M91.74,194.06l-.1.2a11.47,11.47,0,0,0-.7,2.18,11.06,11.06,0,0,0-.21,2.13,10.54,10.54,0,0,0,.21,2.07v.24a15.4,15.4,0,0,0-.6,2.08,8.81,8.81,0,0,0-.21,1.88,8.08,8.08,0,0,0,.09,1.2,9.09,9.09,0,0,0,.27,1.25v.27a10.31,10.31,0,0,0-.69,1.86,7,7,0,0,0-.22,1.71,8.73,8.73,0,0,0,1.06-.33l1.18-.44.28-.07.81.1a6.56,6.56,0,0,0,.76,0,7.65,7.65,0,0,0,2.2-.31c-.05-.33-.12-.67-.18-1s-.16-.7-.26-1.05l-.05-.21c.09-.42.15-.84.2-1.26s0-.84,0-1.27a11.26,11.26,0,0,0-.2-2.18,12.77,12.77,0,0,0-.6-2.09v-.27a10.34,10.34,0,0,0,.37-1.56,11.42,11.42,0,0,0,.11-1.55,9.8,9.8,0,0,0-.16-1.8,10.72,10.72,0,0,0-.51-1.81l-.1-.21.15-.22a3,3,0,0,0,.21-.24,2.31,2.31,0,0,1,.6-.48,5.25,5.25,0,0,1,1-.47,5.08,5.08,0,0,1,1.56-.21,4.32,4.32,0,0,1,1.26.17,5.31,5.31,0,0,1,.91.38,2.66,2.66,0,0,1,.57.38l.2.2.17.17-.07.26a11.48,11.48,0,0,0-.41,3,9.52,9.52,0,0,0,.64,3.42v.25a12.22,12.22,0,0,0-.33,2.76,10.48,10.48,0,0,0,.84,4.13l.07.14,0,.13a11.1,11.1,0,0,0-.41,2.91,9.6,9.6,0,0,0,.22,2.08,10.26,10.26,0,0,0,.66,2.06l.06.13-.06.19a1.59,1.59,0,0,0-.18.32,2.71,2.71,0,0,1-.58.65,4,4,0,0,1-1.14.65,4.88,4.88,0,0,1-1.85.29,4.69,4.69,0,0,1-1.2-.13,4,4,0,0,1-.87-.34A2.73,2.73,0,0,1,96,216a4.32,4.32,0,0,1-.33-.39c-.35.11-.7.24-1,.38s-.68.31-1,.5l-.2,0-1.67,0a15.19,15.19,0,0,0-1.54.14,7.88,7.88,0,0,0-1.47.36,7.69,7.69,0,0,0-1.46.69l-.14.1-.17,0-.36-.15a2.14,2.14,0,0,1-.6-.35,3.84,3.84,0,0,1-.69-.77,5.24,5.24,0,0,1-.65-1.38,3.26,3.26,0,0,1-.79-.5,3.32,3.32,0,0,1-.49-.54,2.34,2.34,0,0,1-.25-.44,1.31,1.31,0,0,1-.08-.21l-.05-.17.08-.14a11.75,11.75,0,0,0,.82-2,7.77,7.77,0,0,0,.26-2.05c0-.29,0-.6,0-.92s-.07-.66-.13-1v-.21a15.28,15.28,0,0,0,.55-1.95,9.56,9.56,0,0,0,.18-1.84,8.45,8.45,0,0,0-.09-1.22c-.06-.41-.15-.84-.26-1.3l0-.13.07-.16a10.17,10.17,0,0,0,.79-2.15,9.12,9.12,0,0,0,.27-2.22,10,10,0,0,0-.29-2.31l-.07-.24.19-.13.19-.19a1.86,1.86,0,0,1,.51-.35,5.31,5.31,0,0,1,.86-.34,4.48,4.48,0,0,1,1.22-.15,4.36,4.36,0,0,1,1.56.25,4.9,4.9,0,0,1,1.1.55,2.94,2.94,0,0,1,.65.55l.23.27Z" fill="#ebeef2"/><path d="M120.83,202.91l0,.21-.2.1a13.38,13.38,0,0,0-2,1.07,8.66,8.66,0,0,0-1.65,1.36,5.93,5.93,0,0,0,.75,1.41,10.86,10.86,0,0,0,1.22,1.32l.1.17a8.59,8.59,0,0,0,1,2.67,8.12,8.12,0,0,0,1.83,2.18l.14.09v.17s0,.13,0,.33a2.21,2.21,0,0,1-.2.71,3.84,3.84,0,0,1-.59.93,4.39,4.39,0,0,1-1.18.94,4.89,4.89,0,0,1-1.12.47,4.14,4.14,0,0,1-.91.12,3.1,3.1,0,0,1-.64-.06,3,3,0,0,1-.46-.16,2.49,2.49,0,0,1-.29-.15l-.12-.09-.1-.07,0-.17a7.53,7.53,0,0,0-.27-1.24,7.39,7.39,0,0,0-.45-1.13,10.93,10.93,0,0,0-.64-1.08c-.25-.35-.52-.71-.82-1.07a1.12,1.12,0,0,0-.23-.21l-.11-.1v-.14a13.54,13.54,0,0,0-.31-1.43,6,6,0,0,0-.49-1.17,13.89,13.89,0,0,0-1.38,1.18,14.61,14.61,0,0,0-1.18,1.35.59.59,0,0,0,0,.26,2,2,0,0,1,0,.26,11.3,11.3,0,0,0,.13,1.76,9.33,9.33,0,0,0,.46,1.74l.07.14-.07.18a2.58,2.58,0,0,1-.18.3,2.54,2.54,0,0,1-.57.57,3.92,3.92,0,0,1-1.07.56,5,5,0,0,1-1.68.25,4.46,4.46,0,0,1-1.67-.27,3.74,3.74,0,0,1-1-.59,3.06,3.06,0,0,1-.54-.61,1.63,1.63,0,0,1-.15-.31l-.07-.19.07-.13a10,10,0,0,0,.58-1.94,10.56,10.56,0,0,0,.19-2.05,14.05,14.05,0,0,0-.08-1.44,12.44,12.44,0,0,0-.26-1.5v-.22c.13-.56.25-1.11.33-1.66a10.1,10.1,0,0,0,.13-1.62,9.61,9.61,0,0,0-.16-1.79,13.84,13.84,0,0,0-.41-1.75l0-.13.07-.14a10.25,10.25,0,0,0,.73-3.76,9.3,9.3,0,0,0-.11-1.5,9.91,9.91,0,0,0-.35-1.51l-.07-.2.14-.17.14-.15a3.38,3.38,0,0,1,.36-.31,3.64,3.64,0,0,1,.61-.36,4.45,4.45,0,0,1,.89-.28,2.91,2.91,0,0,1,.74-.81,3.72,3.72,0,0,1,.77-.45,4.27,4.27,0,0,1,.64-.21,1,1,0,0,0,.29-.07h.19l.14.11a10.83,10.83,0,0,0,1.09.85,8.32,8.32,0,0,0,1.27.72,8,8,0,0,0,1.4.49,6.39,6.39,0,0,0,1.52.18l.29.12a14.53,14.53,0,0,0,1.31,1,6.68,6.68,0,0,0,1.29.69,7.12,7.12,0,0,0,1.4.43,12.29,12.29,0,0,0,1.62.21l.22,0,.14.17a.54.54,0,0,0,.06.16,3.26,3.26,0,0,1,.13.33c0,.14.09.31.13.51a3.51,3.51,0,0,1,.06.68,4.88,4.88,0,0,1-.06.73,4.37,4.37,0,0,1-.22.84,3.94,3.94,0,0,1-.59,1.16,3.79,3.79,0,0,1,.24.83,4.48,4.48,0,0,1,.06.68,2.86,2.86,0,0,1,0,.46A1.88,1.88,0,0,0,120.83,202.91Zm-7.73-3.11-.22-.07c-.43-.25-.84-.48-1.21-.71s-.75-.42-1.1-.59a8.8,8.8,0,0,0,.1,1.26A12,12,0,0,0,111,201v.25a13.73,13.73,0,0,0-.53,2.81c.19-.19.36-.37.51-.55a4.6,4.6,0,0,0,.37-.51l.25-.21a12.14,12.14,0,0,0,2.11-1,9.35,9.35,0,0,0,1.81-1.46A10.38,10.38,0,0,0,113.1,199.8Z" fill="#ebeef2"/><path d="M135.51,204.65a4,4,0,0,1-.21,1.35,4.78,4.78,0,0,1-.46,1,3.81,3.81,0,0,1-.47.6l-.23.22-.17.14-.24-.07a13.75,13.75,0,0,0-1.69-.48,7,7,0,0,0-1.44-.15,5.16,5.16,0,0,0-1,.1l.1.21.07.15-.07.14a11.5,11.5,0,0,0-.56,2.3l.61-.12.65-.08.51,0,.23,0,.13,0,.14.08a15.35,15.35,0,0,0,1.66.6,4.62,4.62,0,0,0,1.38.21,5.67,5.67,0,0,0,1-.11,12.53,12.53,0,0,0,1.29-.29l.2-.06.17.13a1.24,1.24,0,0,0,.2.22,2.37,2.37,0,0,1,.38.54,5.25,5.25,0,0,1,.38.93,4.65,4.65,0,0,1,.17,1.32,3.76,3.76,0,0,1-.24,1.33,4.92,4.92,0,0,1-.48,1,3.18,3.18,0,0,1-.48.59,2,2,0,0,1-.24.22l-.22.11-.2-.07a16.31,16.31,0,0,0-1.68-.54,5.38,5.38,0,0,0-1.3-.16,6,6,0,0,0-.92.07c-.32.06-.69.13-1.11.23h-.24c-.32,0-.63-.12-.95-.19l-1-.22a4.35,4.35,0,0,1-.43.41,3.09,3.09,0,0,1-.65.38,4.05,4.05,0,0,1-.89.28,5,5,0,0,1-1.14.11,4.4,4.4,0,0,1-1.66-.27,3.68,3.68,0,0,1-1-.61,2.32,2.32,0,0,1-.53-.61,1.34,1.34,0,0,1-.16-.32l-.07-.13.07-.19a9.51,9.51,0,0,0,.58-1.93,10.48,10.48,0,0,0,.19-2,11.85,11.85,0,0,0-.08-1.45,12.4,12.4,0,0,0-.26-1.52v-.23a16.42,16.42,0,0,0,.33-1.64,10.07,10.07,0,0,0,.13-1.64,10.4,10.4,0,0,0-.15-1.77,16.74,16.74,0,0,0-.41-1.73l0-.17.07-.14a9.64,9.64,0,0,0,.74-3.71,9.51,9.51,0,0,0-.47-3l-.06-.23.13-.17.21-.21a2.77,2.77,0,0,1,.57-.43,4.71,4.71,0,0,1,1-.41,4.62,4.62,0,0,1,1.38-.18,4.26,4.26,0,0,1,1.57.26,4.43,4.43,0,0,1,1,.55c.33,0,.67-.09,1-.16a7.32,7.32,0,0,0,1.09-.29l.14-.07.19,0a14.11,14.11,0,0,0,1.42.38,5.35,5.35,0,0,0,1.16.13,5.52,5.52,0,0,0,1.24-.15c.44-.11.94-.26,1.53-.47l.2-.08.19.12.22.19a2,2,0,0,1,.44.52,4.86,4.86,0,0,1,.46.89,4.27,4.27,0,0,1,.26,1.3v.31a3.72,3.72,0,0,1-.17,1.21,4.27,4.27,0,0,1-.38.9,3.44,3.44,0,0,1-.4.56l-.19.2-.17.14-.26-.07c-.55-.12-1-.22-1.4-.28a7.23,7.23,0,0,0-1.08-.1,5.55,5.55,0,0,0-1.15.13q-.57.13-1.38.39l-.24,0c-.47-.09-.93-.16-1.37-.2a11.73,11.73,0,0,0-1.33-.07c0,.32.09.63.15.95a7,7,0,0,0,.25,1v.23a5.1,5.1,0,0,0-.17.61c0,.2-.07.41-.11.62a5,5,0,0,0,.93.19,6.9,6.9,0,0,0,.92,0,7,7,0,0,0,1.28-.11,10.43,10.43,0,0,0,1.42-.35l.2-.07.17.14.22.2a3.06,3.06,0,0,1,.43.54,4.53,4.53,0,0,1,.41.93A4.21,4.21,0,0,1,135.51,204.65Z" fill="#ebeef2"/><path d="M28.83,195.8l-.1.22q-.39.67-.66,1.26a10.34,10.34,0,0,0-.44,1.15,6.58,6.58,0,0,0-.23,1.14,9.28,9.28,0,0,0-.07,1.21v.37a2.56,2.56,0,0,0,0,.39l-.07.26c-.24.47-.44.91-.62,1.33a10.08,10.08,0,0,0-.43,1.23,8,8,0,0,0-.24,1.18,9.65,9.65,0,0,0-.07,1.22c0,.19,0,.38,0,.58s0,.4,0,.61l-.06.28a11.6,11.6,0,0,0-1.2,2.74,10.69,10.69,0,0,0-.41,3,5.82,5.82,0,0,0,0,.59c0,.19,0,.38.05.58v.13l-.11.14a1.81,1.81,0,0,1-.16.21,2,2,0,0,1-.44.36,3.75,3.75,0,0,1-.75.36,3.25,3.25,0,0,1-1.09.16h-.49a7,7,0,0,1-1.29.64,4.58,4.58,0,0,1-1.69.3,3.15,3.15,0,0,1-1.08-.16,3.62,3.62,0,0,1-.76-.35,1.7,1.7,0,0,1-.44-.36l-.16-.19-.12-.13,0-.17c0-.23,0-.45.05-.67s0-.44,0-.67a11,11,0,0,0-.35-2.72,12.44,12.44,0,0,0-1.09-2.73l-.07-.22a12.22,12.22,0,0,0-1.82-6.58l-.07-.27c0-.23,0-.45.05-.67s0-.44,0-.67a9.87,9.87,0,0,0-1.51-5.24l-.1-.17.1-.23a2.19,2.19,0,0,0,.19-.3,3,3,0,0,1,.64-.73,4.41,4.41,0,0,1,1.21-.74,4.46,4.46,0,0,1,1.87-.35,4.35,4.35,0,0,1,.93.1,4.52,4.52,0,0,1,.7.21,4.8,4.8,0,0,1,.45.22l.2.12.19.16v.24a2.49,2.49,0,0,0,0,.47v.47a11.34,11.34,0,0,0,.34,2.79,9.14,9.14,0,0,0,1.1,2.51l0,.23a14.56,14.56,0,0,0,.3,3.08,11.35,11.35,0,0,0,.95,2.67,12.09,12.09,0,0,0,.85-2.3,9.18,9.18,0,0,0,.28-2.33v-.53a3.56,3.56,0,0,0,0-.55l.07-.27a11,11,0,0,0,.71-1.24,9.11,9.11,0,0,0,.46-1.17,7,7,0,0,0,.26-1.19,10.8,10.8,0,0,0,.07-1.31c0-.16,0-.32,0-.48s0-.33,0-.51v-.21l.14-.13.17-.12a2.39,2.39,0,0,1,.43-.22,4.53,4.53,0,0,1,.66-.23,4.08,4.08,0,0,1,.91-.1,4,4,0,0,1,1.69.33,5,5,0,0,1,1.14.73,3,3,0,0,1,.63.73l.21.35Z" fill="none" stroke="#231f20" stroke-width="0.5"/><path d="M42.66,204.65a4,4,0,0,1-.21,1.35,4.78,4.78,0,0,1-.46,1,3.81,3.81,0,0,1-.47.6l-.23.22-.17.14-.24-.07a14.17,14.17,0,0,0-1.68-.48,7.21,7.21,0,0,0-1.45-.15,5.16,5.16,0,0,0-1,.1l.1.21.07.15-.07.14a11.5,11.5,0,0,0-.56,2.3l.61-.12.65-.08.51,0,.23,0,.13,0,.14.08a15.35,15.35,0,0,0,1.66.6,4.67,4.67,0,0,0,1.38.21,5.67,5.67,0,0,0,1-.11,12.53,12.53,0,0,0,1.29-.29l.2-.06.17.13a1.24,1.24,0,0,0,.2.22,2.37,2.37,0,0,1,.38.54,4.59,4.59,0,0,1,.38.93,4.65,4.65,0,0,1,.17,1.32,3.76,3.76,0,0,1-.24,1.33,4.92,4.92,0,0,1-.48,1,3.18,3.18,0,0,1-.48.59l-.23.22-.23.11-.2-.07a15.57,15.57,0,0,0-1.68-.54,5.32,5.32,0,0,0-1.3-.16,6,6,0,0,0-.92.07c-.32.06-.69.13-1.11.23h-.24c-.32,0-.63-.12-1-.19l-.95-.22a3.46,3.46,0,0,1-.43.41,2.86,2.86,0,0,1-.65.38,4.05,4.05,0,0,1-.89.28,5,5,0,0,1-1.14.11,4.4,4.4,0,0,1-1.66-.27,3.68,3.68,0,0,1-1.05-.61,2.32,2.32,0,0,1-.53-.61,1.34,1.34,0,0,1-.16-.32l-.07-.13.07-.19a9.51,9.51,0,0,0,.58-1.93,10.48,10.48,0,0,0,.19-2,11.85,11.85,0,0,0-.08-1.45,10.75,10.75,0,0,0-.26-1.52v-.23a16.42,16.42,0,0,0,.33-1.64,10.07,10.07,0,0,0,.13-1.64,10.4,10.4,0,0,0-.15-1.77,14.5,14.5,0,0,0-.41-1.73l0-.17.07-.14a9.64,9.64,0,0,0,.74-3.71,10.56,10.56,0,0,0-.11-1.49,12.16,12.16,0,0,0-.35-1.51l-.07-.23.13-.17.21-.21a3.09,3.09,0,0,1,.57-.43,4.54,4.54,0,0,1,2.35-.59,4.26,4.26,0,0,1,1.57.26,4.43,4.43,0,0,1,1,.55c.33,0,.67-.09,1-.16a7.32,7.32,0,0,0,1.09-.29l.14-.07.19,0a14.11,14.11,0,0,0,1.42.38,5.35,5.35,0,0,0,1.16.13,5.45,5.45,0,0,0,1.24-.15c.44-.11.94-.26,1.53-.47l.2-.08.19.12.22.19a2.23,2.23,0,0,1,.45.52,4.88,4.88,0,0,1,.45.89,4.27,4.27,0,0,1,.26,1.3v.31a3.72,3.72,0,0,1-.17,1.21,4.27,4.27,0,0,1-.38.9,2.92,2.92,0,0,1-.4.56l-.19.2-.17.14-.26-.07c-.55-.12-1-.22-1.4-.28a7.23,7.23,0,0,0-1.08-.1,5.63,5.63,0,0,0-1.15.13q-.57.13-1.38.39l-.24,0c-.47-.09-.93-.16-1.37-.2a11.73,11.73,0,0,0-1.33-.07c0,.32.09.63.15.95a7,7,0,0,0,.25,1v.23a5.1,5.1,0,0,0-.17.61c0,.2-.07.41-.11.62a5.05,5.05,0,0,0,.94.19,6.66,6.66,0,0,0,.91,0,7,7,0,0,0,1.28-.11,10.43,10.43,0,0,0,1.42-.35l.2-.07.18.14.21.2a3.06,3.06,0,0,1,.43.54,4.53,4.53,0,0,1,.41.93A4.21,4.21,0,0,1,42.66,204.65Z" fill="none" stroke="#231f20" stroke-width="0.5"/><path d="M65.93,193.79l-.07.2a18.23,18.23,0,0,0-.48,1.86,9.36,9.36,0,0,0-.18,1.82,7.68,7.68,0,0,0,.11,1.35,10.51,10.51,0,0,0,.32,1.38v.24a12.36,12.36,0,0,0-.53,3.54,10.8,10.8,0,0,0,.13,1.72,9.89,9.89,0,0,0,.43,1.66v.29a9.67,9.67,0,0,0-.51,1.8,11,11,0,0,0-.16,1.81,10.09,10.09,0,0,0,.6,3.41l.07.19-.07.14-.19.3a2.28,2.28,0,0,1-.56.57,4,4,0,0,1-1.06.56,5,5,0,0,1-1.66.24,5.19,5.19,0,0,1-1.4-.16,3.23,3.23,0,0,1-1-.43h-.17a3.43,3.43,0,0,1-.83-.1,4,4,0,0,1-.59-.2,1.49,1.49,0,0,1-.37-.23,1.13,1.13,0,0,1-.15-.14l-.13-.1v-.17a10.44,10.44,0,0,0-.72-3.34,12.84,12.84,0,0,0-1.85-3.14l-.06-.17a13,13,0,0,0-.58-2.19,13.48,13.48,0,0,0-.89-2,11.14,11.14,0,0,0,.16,1.55,8,8,0,0,0,.4,1.49l.07.15-.07.14a9.5,9.5,0,0,0-.48,1.75,10.63,10.63,0,0,0-.15,1.79,11.36,11.36,0,0,0,.13,1.75,8.56,8.56,0,0,0,.47,1.73l.06.19-.06.14s-.08.12-.19.3a2.34,2.34,0,0,1-.57.57,3.85,3.85,0,0,1-1.06.56,5.13,5.13,0,0,1-1.69.24,4.38,4.38,0,0,1-1.66-.26,3.93,3.93,0,0,1-1.05-.6,2.32,2.32,0,0,1-.53-.61,1.46,1.46,0,0,1-.16-.3l-.07-.17.07-.16a9.33,9.33,0,0,0,.58-1.93,10.56,10.56,0,0,0,.19-2.05,13.9,13.9,0,0,0-.08-1.44,11.79,11.79,0,0,0-.26-1.5v-.2c.14-.57.25-1.13.33-1.69a10,10,0,0,0,.13-1.61,10.58,10.58,0,0,0-.15-1.8c-.11-.58-.24-1.16-.41-1.74l0-.14.07-.13a10.26,10.26,0,0,0,.74-3.75,8.93,8.93,0,0,0-.12-1.47,9.53,9.53,0,0,0-.35-1.5l-.06-.22.13-.17.21-.22a2.47,2.47,0,0,1,.57-.42,4.22,4.22,0,0,1,1-.41,4.62,4.62,0,0,1,1.38-.18,4.3,4.3,0,0,1,1.32.18,5,5,0,0,1,1,.41h.28a3.22,3.22,0,0,1,1.14.17,3.4,3.4,0,0,1,.46.19l.22.11,0,.2a10.32,10.32,0,0,0,2.44,5.91l.1.11v.1a12.41,12.41,0,0,0,1.77,4.84v0a11.69,11.69,0,0,0-.14-1.79,15,15,0,0,0-.39-1.78v-.27a10.43,10.43,0,0,0,.73-3.81,10,10,0,0,0-.43-2.91l-.07-.22.14-.17.21-.22a2.47,2.47,0,0,1,.57-.42,4.32,4.32,0,0,1,1-.41,4.74,4.74,0,0,1,1.39-.18,4.25,4.25,0,0,1,1.4.21,5,5,0,0,1,1,.47,2.81,2.81,0,0,1,.61.48,3,3,0,0,0,.23.24Z" fill="none" stroke="#231f20" stroke-width="0.5"/><path d="M78.31,208.23l-.07.15a9.79,9.79,0,0,0-.64,3.32,7.93,7.93,0,0,0,.15,1.53,11.86,11.86,0,0,0,.44,1.64l.08.19-.08.14s-.08.12-.19.3a2.34,2.34,0,0,1-.57.57,3.85,3.85,0,0,1-1.06.56,5,5,0,0,1-1.67.24,4.47,4.47,0,0,1-1.67-.26,3.63,3.63,0,0,1-1-.6,2.32,2.32,0,0,1-.53-.61l-.17-.3-.07-.17.07-.16a10.44,10.44,0,0,0,.58-1.83,9,9,0,0,0,.19-1.81,12,12,0,0,0-.08-1.31,12.25,12.25,0,0,0-.26-1.44v-.22a12.65,12.65,0,0,0,.34-1.64,11.26,11.26,0,0,0,.1-1.51,10,10,0,0,0-.53-3.14l-.07-.15.07-.14a9.14,9.14,0,0,0,.54-1.86,14.53,14.53,0,0,0,.2-1.85H72.2a10,10,0,0,0-3.46.63l-.14,0-.17-.07a1.19,1.19,0,0,1-.31-.16,2.45,2.45,0,0,1-.61-.53,3.41,3.41,0,0,1-.59-1,4.24,4.24,0,0,1-.27-1.63,3.88,3.88,0,0,1,.26-1.52,3.6,3.6,0,0,1,.57-.94,2.18,2.18,0,0,1,.58-.49l.3-.16.14-.07.17.07a7.5,7.5,0,0,0,1.5.38,11.23,11.23,0,0,0,1.56.11c.47,0,1,0,1.54-.06a5.69,5.69,0,0,0,1.57-.33l.13-.07.14.07a13.46,13.46,0,0,0,1.65.43,9,9,0,0,0,1.55.13,9.88,9.88,0,0,0,3-.53l.2-.07.17.14.23.19a2.46,2.46,0,0,1,.43.52,3.89,3.89,0,0,1,.43.89A4,4,0,0,1,83,195.1a4.17,4.17,0,0,1-.19,1.34,4.61,4.61,0,0,1-.41,1A2.79,2.79,0,0,1,82,198a.86.86,0,0,0-.22.25l-.17.14-.24-.07a12.28,12.28,0,0,0-1.6-.39,10.08,10.08,0,0,0-1.44-.11h-.5a2.33,2.33,0,0,0,0,.45c0,.15,0,.29,0,.42a10.62,10.62,0,0,0,.09,1.4,10.77,10.77,0,0,0,.29,1.37v.21c-.17.64-.3,1.22-.39,1.76a10.61,10.61,0,0,0-.13,1.57,8.73,8.73,0,0,0,.14,1.54,9.51,9.51,0,0,0,.43,1.57Z" fill="none" stroke="#231f20" stroke-width="0.5"/><path d="M91.74,194.06l-.1.2a11.47,11.47,0,0,0-.7,2.18,11.06,11.06,0,0,0-.21,2.13,10.54,10.54,0,0,0,.21,2.07v.24a15.4,15.4,0,0,0-.6,2.08,8.81,8.81,0,0,0-.21,1.88,8.08,8.08,0,0,0,.09,1.2,9.09,9.09,0,0,0,.27,1.25v.27a10.31,10.31,0,0,0-.69,1.86,7,7,0,0,0-.22,1.71,8.73,8.73,0,0,0,1.06-.33l1.18-.44.28-.07.81.1a6.56,6.56,0,0,0,.76,0,7.65,7.65,0,0,0,2.2-.31c-.05-.33-.12-.67-.18-1s-.16-.7-.26-1.05l-.05-.21c.09-.42.15-.84.2-1.26s0-.84,0-1.27a11.26,11.26,0,0,0-.2-2.18,12.77,12.77,0,0,0-.6-2.09v-.27a10.34,10.34,0,0,0,.37-1.56,11.42,11.42,0,0,0,.11-1.55,9.8,9.8,0,0,0-.16-1.8,10.72,10.72,0,0,0-.51-1.81l-.1-.21.15-.22a3,3,0,0,0,.21-.24,2.31,2.31,0,0,1,.6-.48,5.25,5.25,0,0,1,1-.47,5.08,5.08,0,0,1,1.56-.21,4.32,4.32,0,0,1,1.26.17,5.31,5.31,0,0,1,.91.38,2.66,2.66,0,0,1,.57.38l.2.2.17.17-.07.26a11.48,11.48,0,0,0-.41,3,9.52,9.52,0,0,0,.64,3.42v.25a12.22,12.22,0,0,0-.33,2.76,10.48,10.48,0,0,0,.84,4.13l.07.14,0,.13a11.1,11.1,0,0,0-.41,2.91,9.6,9.6,0,0,0,.22,2.08,10.26,10.26,0,0,0,.66,2.06l.06.13-.06.19a1.59,1.59,0,0,0-.18.32,2.71,2.71,0,0,1-.58.65,4,4,0,0,1-1.14.65,4.88,4.88,0,0,1-1.85.29,4.69,4.69,0,0,1-1.2-.13,4,4,0,0,1-.87-.34A2.73,2.73,0,0,1,96,216a4.32,4.32,0,0,1-.33-.39c-.35.11-.7.24-1,.38s-.68.31-1,.5l-.2,0-1.67,0a15.19,15.19,0,0,0-1.54.14,7.88,7.88,0,0,0-1.47.36,7.69,7.69,0,0,0-1.46.69l-.14.1-.17,0-.36-.15a2.14,2.14,0,0,1-.6-.35,3.84,3.84,0,0,1-.69-.77,5.24,5.24,0,0,1-.65-1.38,3.26,3.26,0,0,1-.79-.5,3.32,3.32,0,0,1-.49-.54,2.34,2.34,0,0,1-.25-.44,1.31,1.31,0,0,1-.08-.21l-.05-.17.08-.14a11.75,11.75,0,0,0,.82-2,7.77,7.77,0,0,0,.26-2.05c0-.29,0-.6,0-.92s-.07-.66-.13-1v-.21a15.28,15.28,0,0,0,.55-1.95,9.56,9.56,0,0,0,.18-1.84,8.45,8.45,0,0,0-.09-1.22c-.06-.41-.15-.84-.26-1.3l0-.13.07-.16a10.17,10.17,0,0,0,.79-2.15,9.12,9.12,0,0,0,.27-2.22,10,10,0,0,0-.29-2.31l-.07-.24.19-.13.19-.19a1.86,1.86,0,0,1,.51-.35,5.31,5.31,0,0,1,.86-.34,4.48,4.48,0,0,1,1.22-.15,4.36,4.36,0,0,1,1.56.25,4.9,4.9,0,0,1,1.1.55,2.94,2.94,0,0,1,.65.55l.23.27Z" fill="none" stroke="#231f20" stroke-width="0.5"/><path d="M120.83,202.91l0,.21-.2.1a13.38,13.38,0,0,0-2,1.07,8.66,8.66,0,0,0-1.65,1.36,5.93,5.93,0,0,0,.75,1.41,10.86,10.86,0,0,0,1.22,1.32l.1.17a8.59,8.59,0,0,0,1,2.67,8.12,8.12,0,0,0,1.83,2.18l.14.09v.17s0,.13,0,.33a2.21,2.21,0,0,1-.2.71,3.84,3.84,0,0,1-.59.93,4.39,4.39,0,0,1-1.18.94,4.89,4.89,0,0,1-1.12.47,4.14,4.14,0,0,1-.91.12,3.1,3.1,0,0,1-.64-.06,3,3,0,0,1-.46-.16,2.49,2.49,0,0,1-.29-.15l-.12-.09-.1-.07,0-.17a7.53,7.53,0,0,0-.27-1.24,7.39,7.39,0,0,0-.45-1.13,10.93,10.93,0,0,0-.64-1.08c-.25-.35-.52-.71-.82-1.07a1.12,1.12,0,0,0-.23-.21l-.11-.1v-.14a13.54,13.54,0,0,0-.31-1.43,6,6,0,0,0-.49-1.17,13.89,13.89,0,0,0-1.38,1.18,14.61,14.61,0,0,0-1.18,1.35.59.59,0,0,0,0,.26,2,2,0,0,1,0,.26,11.3,11.3,0,0,0,.13,1.76,9.33,9.33,0,0,0,.46,1.74l.07.14-.07.18a2.58,2.58,0,0,1-.18.3,2.54,2.54,0,0,1-.57.57,3.92,3.92,0,0,1-1.07.56,5,5,0,0,1-1.68.25,4.46,4.46,0,0,1-1.67-.27,3.74,3.74,0,0,1-1-.59,3.06,3.06,0,0,1-.54-.61,1.63,1.63,0,0,1-.15-.31l-.07-.19.07-.13a10,10,0,0,0,.58-1.94,10.56,10.56,0,0,0,.19-2.05,14.05,14.05,0,0,0-.08-1.44,12.44,12.44,0,0,0-.26-1.5v-.22c.13-.56.25-1.11.33-1.66a10.1,10.1,0,0,0,.13-1.62,9.61,9.61,0,0,0-.16-1.79,13.84,13.84,0,0,0-.41-1.75l0-.13.07-.14a10.25,10.25,0,0,0,.73-3.76,9.3,9.3,0,0,0-.11-1.5,9.91,9.91,0,0,0-.35-1.51l-.07-.2.14-.17.14-.15a3.38,3.38,0,0,1,.36-.31,3.64,3.64,0,0,1,.61-.36,4.45,4.45,0,0,1,.89-.28,2.91,2.91,0,0,1,.74-.81,3.72,3.72,0,0,1,.77-.45,4.27,4.27,0,0,1,.64-.21,1,1,0,0,0,.29-.07h.19l.14.11a10.83,10.83,0,0,0,1.09.85,8.32,8.32,0,0,0,1.27.72,8,8,0,0,0,1.4.49,6.39,6.39,0,0,0,1.52.18l.29.12a14.53,14.53,0,0,0,1.31,1,6.68,6.68,0,0,0,1.29.69,7.12,7.12,0,0,0,1.4.43,12.29,12.29,0,0,0,1.62.21l.22,0,.14.17a.54.54,0,0,0,.06.16,3.26,3.26,0,0,1,.13.33c0,.14.09.31.13.51a3.51,3.51,0,0,1,.06.68,4.88,4.88,0,0,1-.06.73,4.37,4.37,0,0,1-.22.84,3.94,3.94,0,0,1-.59,1.16,3.79,3.79,0,0,1,.24.83,4.48,4.48,0,0,1,.06.68,2.86,2.86,0,0,1,0,.46A1.88,1.88,0,0,0,120.83,202.91Zm-7.73-3.11-.22-.07c-.43-.25-.84-.48-1.21-.71s-.75-.42-1.1-.59a8.8,8.8,0,0,0,.1,1.26A12,12,0,0,0,111,201v.25a13.73,13.73,0,0,0-.53,2.81c.19-.19.36-.37.51-.55a4.6,4.6,0,0,0,.37-.51l.25-.21a12.14,12.14,0,0,0,2.11-1,9.35,9.35,0,0,0,1.81-1.46A10.38,10.38,0,0,0,113.1,199.8Z" fill="none" stroke="#231f20" stroke-width="0.5"/><path d="M135.51,204.65a4,4,0,0,1-.21,1.35,4.78,4.78,0,0,1-.46,1,3.81,3.81,0,0,1-.47.6l-.23.22-.17.14-.24-.07a13.75,13.75,0,0,0-1.69-.48,7,7,0,0,0-1.44-.15,5.16,5.16,0,0,0-1,.1l.1.21.07.15-.07.14a11.5,11.5,0,0,0-.56,2.3l.61-.12.65-.08.51,0,.23,0,.13,0,.14.08a15.35,15.35,0,0,0,1.66.6,4.62,4.62,0,0,0,1.38.21,5.67,5.67,0,0,0,1-.11,12.53,12.53,0,0,0,1.29-.29l.2-.06.17.13a1.24,1.24,0,0,0,.2.22,2.37,2.37,0,0,1,.38.54,5.25,5.25,0,0,1,.38.93,4.65,4.65,0,0,1,.17,1.32,3.76,3.76,0,0,1-.24,1.33,4.92,4.92,0,0,1-.48,1,3.18,3.18,0,0,1-.48.59,2,2,0,0,1-.24.22l-.22.11-.2-.07a16.31,16.31,0,0,0-1.68-.54,5.38,5.38,0,0,0-1.3-.16,6,6,0,0,0-.92.07c-.32.06-.69.13-1.11.23h-.24c-.32,0-.63-.12-.95-.19l-1-.22a4.35,4.35,0,0,1-.43.41,3.09,3.09,0,0,1-.65.38,4.05,4.05,0,0,1-.89.28,5,5,0,0,1-1.14.11,4.4,4.4,0,0,1-1.66-.27,3.68,3.68,0,0,1-1-.61,2.32,2.32,0,0,1-.53-.61,1.34,1.34,0,0,1-.16-.32l-.07-.13.07-.19a9.51,9.51,0,0,0,.58-1.93,10.48,10.48,0,0,0,.19-2,11.85,11.85,0,0,0-.08-1.45,12.4,12.4,0,0,0-.26-1.52v-.23a16.42,16.42,0,0,0,.33-1.64,10.07,10.07,0,0,0,.13-1.64,10.4,10.4,0,0,0-.15-1.77,16.74,16.74,0,0,0-.41-1.73l0-.17.07-.14a9.64,9.64,0,0,0,.74-3.71,9.51,9.51,0,0,0-.47-3l-.06-.23.13-.17.21-.21a2.77,2.77,0,0,1,.57-.43,4.71,4.71,0,0,1,1-.41,4.62,4.62,0,0,1,1.38-.18,4.26,4.26,0,0,1,1.57.26,4.43,4.43,0,0,1,1,.55c.33,0,.67-.09,1-.16a7.32,7.32,0,0,0,1.09-.29l.14-.07.19,0a14.11,14.11,0,0,0,1.42.38,5.35,5.35,0,0,0,1.16.13,5.52,5.52,0,0,0,1.24-.15c.44-.11.94-.26,1.53-.47l.2-.08.19.12.22.19a2,2,0,0,1,.44.52,4.86,4.86,0,0,1,.46.89,4.27,4.27,0,0,1,.26,1.3v.31a3.72,3.72,0,0,1-.17,1.21,4.27,4.27,0,0,1-.38.9,3.44,3.44,0,0,1-.4.56l-.19.2-.17.14-.26-.07c-.55-.12-1-.22-1.4-.28a7.23,7.23,0,0,0-1.08-.1,5.55,5.55,0,0,0-1.15.13q-.57.13-1.38.39l-.24,0c-.47-.09-.93-.16-1.37-.2a11.73,11.73,0,0,0-1.33-.07c0,.32.09.63.15.95a7,7,0,0,0,.25,1v.23a5.1,5.1,0,0,0-.17.61c0,.2-.07.41-.11.62a5,5,0,0,0,.93.19,6.9,6.9,0,0,0,.92,0,7,7,0,0,0,1.28-.11,10.43,10.43,0,0,0,1.42-.35l.2-.07.17.14.22.2a3.06,3.06,0,0,1,.43.54,4.53,4.53,0,0,1,.41.93A4.21,4.21,0,0,1,135.51,204.65Z" fill="none" stroke="#231f20" stroke-width="0.5"/></svg>